<svg id="angle-double-right" xmlns="http://www.w3.org/2000/svg" xmlns:xlink="http://www.w3.org/1999/xlink" viewBox="0 0 16 16">
    <path fill="var(--pgn-fill-color)" d="M9.71589,11.6509c-.08592-.0852-.15412-.1866-.20065-.2983s-.0705-.2316-.0705-.3526.02396-.2408.0705-.3525.11473-.2131.20065-.2983L13.9234,6.15086c.0859-.08522.1541-.1866.2006-.29831s.0705-.23152.0705-.35253-.0239-.24082-.0705-.35253-.1147-.21309-.2006-.2983c-.1718-.17073-.4041-.26656-.6463-.26656s-.4745.09583-.6462.26656L8.42339,9.05669C7.9084,9.57232,7.61914,10.2713,7.61914,11s.28926,1.4277.80425,1.9434l4.20751,4.2075c.1707.1693.4012.2648.6417.2658.1206.0007.2402-.0224.3519-.068s.2132-.1129.2989-.1978c.0859-.0852.1541-.1866.2006-.2983s.0705-.2315.0705-.3526-.0239-.2408-.0705-.3525-.1147-.2131-.2006-.2983L9.71589,11.6509Z" transform="matrix(-1 0 0-1 16.26298 18.999673)"/>
    <path fill="var(--pgn-fill-color)" d="M9.71589,11.6509c-.08592-.0852-.15412-.1866-.20065-.2983s-.0705-.2316-.0705-.3526.02396-.2408.0705-.3525.11473-.2131.20065-.2983L13.9234,6.15086c.0859-.08522.1541-.1866.2006-.29831s.0705-.23152.0705-.35253-.0239-.24082-.0705-.35253-.1147-.21309-.2006-.2983c-.1718-.17073-.4041-.26656-.6463-.26656s-.4745.09583-.6462.26656L8.42339,9.05669C7.9084,9.57232,7.61914,10.2713,7.61914,11s.28926,1.4277.80425,1.9434l4.20751,4.2075c.1707.1693.4012.2648.6417.2658.1206.0007.2402-.0224.3519-.068s.2132-.1129.2989-.1978c.0859-.0852.1541-.1866.2006-.2983s.0705-.2315.0705-.3526-.0239-.2408-.0705-.3525-.1147-.2131-.2006-.2983L9.71589,11.6509Z" transform="matrix(-1 0 0-1 21.55066 18.999673)"/>
</svg>
