<svg id="amazon-icon" xmlns="http://www.w3.org/2000/svg" viewBox="0 0 48 15"><path id="path1" d="M38.42 21.708c-3.093 2.284-7.591 3.504-11.459 3.504-5.423 0-10.306-2.005-13.999-5.342-.29-.262-.03-.62.318-.416 3.986 2.32 8.915 3.715 14.005 3.715 3.434 0 7.211-.71 10.684-2.185.525-.223.963.343.45.724h.001Zm1.289-1.473c-.395-.507-2.613-.239-3.617-.121-.304.037-.35-.228-.077-.418 1.771-1.247 4.677-.887 5.017-.469s-.088 3.333-1.753 4.724c-.256.213-.499.1-.386-.183.373-.933 1.212-3.025.815-3.533h.001Z" transform="matrix(.9 0 0 .9 -4.693 -7.69)"/><path id="path2" d="M36.166 10.894c0 .181.14.304.314.304h2.829l-3.257 4.671c-.197.3-.199.636-.199.834v1.228c0 .176.197.381.386.278 1.845-.98 4.062-.884 5.732-.009.205.107.4-.1.4-.276v-1.293c-.021-.174-.075-.351-.288-.471-.947-.534-2.049-.69-3.094-.664l2.811-4.014c.259-.36.406-.588.409-.762V9.683a.303.303 0 0 0-.314-.307h-5.434a.3.3 0 0 0-.299.299v1.22l.004-.001Zm-19.805 7.557a.312.312 0 0 0 .318-.307v-4.491c0-.98-.046-2.336 1.14-2.336 1.173 0 1.017 1.391 1.017 2.336l.002 4.491c0 .163.13.295.297.307h1.653a.312.312 0 0 0 .318-.307v-4.491c0-.481-.017-1.195.153-1.623s.587-.694.987-.694c.478 0 .848.161.971.729.078.339.046 1.23.046 1.588v4.496c0 .163.137.295.297.307h1.653a.312.312 0 0 0 .318-.307l.004-5.347c0-.908.107-1.943-.416-2.656-.462-.641-1.219-.926-1.91-.926-.973 0-1.88.499-2.28 1.57-.465-1.07-1.11-1.57-2.143-1.57-1.017 0-1.771.499-2.173 1.57h-.03V9.683a.312.312 0 0 0-.3-.283h-1.539a.31.31 0 0 0-.318.304v8.471a.312.312 0 0 0 .295.281h1.65l-.01-.005Zm30.517-9.224c2.449 0 3.775 2.103 3.775 4.778 0 2.584-1.465 4.634-3.775 4.634-2.4 0-3.715-2.103-3.715-4.724 0-2.637 1.326-4.693 3.715-4.693v.005Zm.014 1.723c-1.216 0-1.293 1.658-1.293 2.691s-.016 3.245 1.279 3.245c1.279 0 1.34-1.783 1.34-2.869 0-.715-.03-1.57-.245-2.247-.186-.59-.555-.82-1.079-.82h-.002Zm6.931 7.507a.317.317 0 0 0 .323-.307v-4.562c0-.571.03-1.087.262-1.604.189-.408.558-.677.96-.677 1.14 0 1.033 1.356 1.033 2.283v4.601a.312.312 0 0 0 .292.267h1.652a.317.317 0 0 0 .318-.267v-5.333c0-.82 0-1.96-.427-2.637-.465-.732-1.18-.998-1.927-.998-1.14 0-1.788.553-2.25 1.711h-.03V9.638a.317.317 0 0 0-.295-.237h-1.531a.313.313 0 0 0-.318.276l.002 8.474c0 .163.137.295.297.307h1.644l-.005-.001Zm-21.988-4.054v-.357c-1.195 0-2.456.255-2.456 1.662 0 .713.372 1.196 1.005 1.196.462 0 .88-.286 1.142-.75.325-.577.309-1.107.309-1.75v-.001Zm1.664 4.024a.34.34 0 0 1-.389.039c-.548-.455-.647-.667-.947-1.1-.906.924-1.548 1.2-2.721 1.2-1.39 0-2.47-.857-2.47-2.572 0-1.34.724-2.252 1.76-2.698.896-.395 2.147-.464 3.104-.573v-.213c0-.393.03-.857-.203-1.196-.199-.304-.585-.429-.926-.429-.629 0-1.189.323-1.326.992-.028.149-.137.295-.288.302l-1.6-.172c-.134-.03-.285-.139-.245-.347.367-1.941 2.123-2.526 3.691-2.526.803 0 1.853.213 2.486.821.803.75.726 1.75.726 2.839v2.572c0 .773.32 1.112.622 1.531.105.149.128.327-.007.439l-1.262 1.101-.002-.005-.003-.005Zm-23.303-4.018v-.357c-1.193 0-2.453.255-2.453 1.662 0 .713.369 1.196 1.003 1.196.465 0 .88-.286 1.142-.75.325-.577.309-1.107.309-1.75l-.001-.001Zm1.664 4.023a.34.34 0 0 1-.389.039c-.548-.455-.64-.667-.947-1.1-.906.924-1.547 1.2-2.721 1.2-1.388.001-2.469-.856-2.469-2.571 0-1.34.726-2.252 1.76-2.698.896-.395 2.147-.464 3.104-.573v-.213c0-.393.03-.857-.199-1.196-.203-.304-.587-.429-.926-.429-.629 0-1.191.323-1.333.992-.028.149-.137.295-.285.302l-1.602-.172c-.134-.03-.283-.139-.245-.347.369-1.941 2.123-2.526 3.691-2.526.803 0 1.853.213 2.486.821.803.75.726 1.75.726 2.839v2.572c0 .773.32 1.112.622 1.531.107.149.13.327-.005.439l-1.259 1.094-.005-.005-.004.001Z" transform="matrix(.9 0 0 .9 -4.8 -8.22)"/></svg>