<svg xmlns="http://www.w3.org/2000/svg" width="32" height="32"><path d="M7.467 0h17.067c4.17 0 7.467 3.297 7.467 7.467v17.067c0 4.17-3.297 7.467-7.467 7.467H7.467A7.467 7.467 0 0 1 0 24.534V7.467C0 3.297 3.297 0 7.467 0z"/><path fill="#fff" d="M15.515 25.988c-.776-2.618-2.521-3.879-5.139-3.879-2.909 0-3.879 1.455-4.655 1.455-.291 0-.388-.097-.388-.291V10.958c0-1.455 1.939-2.909 5.139-2.909 3.297 0 5.139 2.424 5.139 4.073zm.776 0V12.121c0-1.649 1.842-4.17 5.139-4.17 3.2 0 5.139 1.552 5.139 3.006v12.315c0 .194-.194.291-.485.291-.776 0-1.745-1.455-4.558-1.455-2.618 0-4.364 1.261-5.236 3.879z"/></svg>