<svg xmlns="http://www.w3.org/2000/svg" width="96" height="32"><path fill="#fff" d="M73.6 11.44c-1.28.16-2.4.8-3.04 1.6-2 2.64-.88 6.4 2.08 7.36 2 .64 4.08.16 5.44-1.28 2.56-2.72.96-7.12-2.8-7.68-.8-.16-.96-.16-1.68 0zm2 2.4a2.404 2.404 0 0 1 1.396 2.18c0 .726-.323 1.378-.833 1.818l-.003.003c-1.6 1.36-4.24.32-4.16-1.84 0-.96.64-1.92 1.6-2.32.48-.16 1.44-.08 2 .16zM36.72 16v4.48h2.24V18.8c0-1.92-.16-2 1.28.24l.96 1.44h1.36c1.12 0 1.36 0 1.36-.16a137.108 137.108 0 0 0-2.788-3.572l.228.292.48-.48c.8-.32 1.12-.8 1.28-1.6.16-1.36-.32-2.4-1.36-2.96l-.64-.32H36.8L36.72 16zm3.76-2.24c.24.24.32.4.32.8 0 .64-.4.96-1.2.96h-.64v-2.08h.56c.48 0 .64 0 .96.32zM48.24 16l-1.68 4.4 1.2.08h1.2l.24-.8.24-.72h3.36l.24.8.24.72h2.4l-1.6-4.16-1.6-4.4-.16-.32h-2.4L48.24 16zm2.96 1.12a6.947 6.947 0 0 1-1.064-.001l.024.001.8-2.64c.16-.24.24 0 .64 1.2l.48 1.44h-.88zm7.92-4.56v1.04h1.68l1.76.08-1.84 2.96-2.08 3.44-.32.48h7.6v-1.92H62.4l1.92-3.36 2.08-3.44c0-.08-.48-.16-3.6-.16h-3.6l-.08.88zm25.12-.88-1.44 8.48v.32h2.24l.32-2.4.4-2.4c0-.24.96 1.92 1.84 4.24.16.56.24.56.64.56h.48l.96-2.4 1.12-2.56.4 2.4.4 2.56h1.12c1.12 0 1.12 0 1.12-.24l-1.44-8.56h-2.32l-.8 2.24-.96 2.32-.88-2.32-.88-2.24h-2.32zM22.528 27.328v-4.56h-4v5.2H4.048v-14.64h14.48v5.28h4v-9.2H.128v22.56h22.4v-4.64z"/><path fill="#fff" d="M9.024 4.752v4.56h4v-5.2h14.48v14.64h-14.48v-5.28h-4v9.2h22.4V.112h-22.4v4.64z"/></svg>