<svg aria-hidden="true" style="width:0;height:0;position:absolute;overflow:hidden" xmlns="http://www.w3.org/2000/svg"><defs><symbol id="logo-icon" viewBox="0 0 32 32"><path fill="#f6f6f6" style="fill:var(--color2,#f6f6f6)" d="m0 0 16.343 16.172L32 32V0H0z"/><path fill="#f6f6f6" style="fill:var(--color2,#f6f6f6)" d="M4.457 4.228 16.4 16.057l11.257 11.485h-23.2V4.227z"/><path fill="#4f2ee8" style="fill:var(--color3,#4f2ee8)" d="M27.733 27.619 15.789 15.79 4.533 4.305h23.2V27.62z"/><path fill="#4f2ee8" style="fill:var(--color3,#4f2ee8)" d="m9.257 9.028 13.6 13.601h-13.6v-13.6z"/><path fill="#f6f6f6" style="fill:var(--color2,#f6f6f6)" d="m9.257 9.028 13.6 13.601v-13.6h-13.6z"/></symbol><symbol id="shopping-bag-icon" viewBox="0 0 32 32"><path d="M25.333 9.333h-4V8a5.333 5.333 0 0 0-10.666 0v1.333H6.665c-.736 0-1.333.597-1.333 1.333V25.334a4 4 0 0 0 4 4h13.334a4 4 0 0 0 4-4V10.666c0-.736-.597-1.333-1.333-1.333h-.002zM13.333 8a2.667 2.667 0 1 1 5.334 0v1.333h-5.334V8zM24 25.333v.002c0 .736-.597 1.333-1.333 1.333H9.333A1.333 1.333 0 0 1 8 25.335V12h2.667v1.333a1.333 1.333 0 0 0 2.666 0V12h5.334v1.333a1.336 1.336 0 0 0 2.666.003V12H24v13.333z"/></symbol><symbol id="burger-menu-icon" viewBox="0 0 32 32"><path stroke-linejoin="round" stroke-linecap="round" stroke-width="2.286" d="M22.667 13.333H4M28 8H4M28 18.667H4M22.667 24H4"/></symbol><symbol id="x-close-icon" viewBox="0 0 32 32"><path stroke-linejoin="round" stroke-linecap="round" stroke-width="3.429" d="M24 8 8 24M8 8l16 16"/></symbol><symbol id="arrow-narrow-right-icon" viewBox="0 0 32 32"><path stroke-linejoin="round" stroke-linecap="round" stroke-width="3.2" d="M5.333 16h21.333m.001 0-8-8m8 8-8 8"/></symbol><symbol id="arrow_narrow_right_icon" viewBox="0 0 43 32"><path fill="none" stroke="#eac645" style="stroke:var(--color4,#eac645)" stroke-linejoin="round" stroke-linecap="round" stroke-width="5.333" d="M3.555 16h35.556m0 0L25.778 2.667M39.111 16 25.778 29.333"/></symbol><symbol id="mobile_menu_icon" viewBox="0 0 32 32"><path stroke-linejoin="round" stroke-linecap="round" stroke-width="2.286" d="M22.667 13.333H4M28 8H4M28 18.667H4M22.667 24H4"/></symbol><symbol id="name_icon" viewBox="0 0 19 19"><path fill="var(--auth-icon-color)" d="M3.167 17.417a6.333 6.333 0 1 1 12.666 0H3.167ZM9.5 10.292a4.749 4.749 0 0 1-4.75-4.75A4.749 4.749 0 0 1 9.5.792a4.749 4.749 0 0 1 4.75 4.75 4.749 4.749 0 0 1-4.75 4.75Z"/></symbol><symbol id="mail_icon" viewBox="0 0 41 32"><path stroke="var(--auth-icon-color)" fill="none" stroke-linejoin="round" stroke-linecap="round" stroke-width="3.429" d="M36.857 26.286 25.47 16m-9.797 0L4.286 26.286M3.429 7.429l13.998 9.799c1.134.793 1.701 1.189 2.315 1.342a3.4 3.4 0 0 0 1.659 0c.617-.153 1.182-.549 2.315-1.342l13.998-9.799M11.657 29.714h17.829c2.88 0 4.32 0 5.419-.56a5.146 5.146 0 0 0 2.249-2.249c.56-1.097.56-2.537.56-5.419V10.515c0-2.88 0-4.32-.56-5.419a5.184 5.184 0 0 0-2.218-2.236l-.029-.014c-1.102-.56-2.542-.56-5.422-.56H11.656c-2.88 0-4.32 0-5.419.56a5.188 5.188 0 0 0-2.236 2.22l-.014.029c-.56 1.097-.56 2.537-.56 5.419v10.971c0 2.88 0 4.32.56 5.419a5.146 5.146 0 0 0 2.249 2.249c1.097.56 2.537.56 5.419.56z"/></symbol><symbol id="password_icon" viewBox="0 0 32 32"><path stroke="var(--auth-icon-color)" fill="none" stroke-linejoin="round" stroke-linecap="round" stroke-width="3" d="M23.5 14.5V10a7.5 7.5 0 0 0-15 0v4.5m1.2 15h12.6c2.52 0 3.78 0 4.742-.49a4.5 4.5 0 0 0 1.968-1.968c.49-.96.49-2.22.49-4.742v-.6c0-2.52 0-3.78-.49-4.742a4.537 4.537 0 0 0-1.943-1.956l-.025-.012c-.96-.49-2.22-.49-4.742-.49H9.7c-2.52 0-3.78 0-4.742.49a4.537 4.537 0 0 0-1.956 1.943l-.012.025c-.49.96-.49 2.22-.49 4.742v.6c0 2.52 0 3.78.49 4.742a4.5 4.5 0 0 0 1.968 1.968c.96.49 2.22.49 4.742.49z"/></symbol><symbol id="close_icon" viewBox="0 0 32 32"><path fill="none" stroke="#111" style="stroke:var(--color1,#111)" stroke-linejoin="round" stroke-linecap="round" stroke-width="5.333" d="M29.333 2.667 2.666 29.334m.001-26.667 26.667 26.667"/></symbol><symbol id="auth-triangle" viewBox="0 0 15 8"><path fill="var(--auth-icon-color)" stroke="var(--auth-icon-color)" d="M.792.75h13.416l-6.03 6.817a.906.906 0 0 1-.678.318.906.906 0 0 1-.677-.318L.792.75Z"/></symbol><symbol id="trash_bucket_icon" viewBox="0 0 32 32"><path fill="none" style="stroke:var(--color1,#fff)" stroke-linejoin="round" stroke-linecap="round" stroke-width="2.667" d="M12 4h8M4 8h24m-2.667 0-.935 14.026c-.14 2.104-.21 3.156-.665 3.954a4.007 4.007 0 0 1-1.731 1.62c-.826.4-1.881.4-3.99.4h-4.025c-2.109 0-3.163 0-3.99-.4a4.001 4.001 0 0 1-1.731-1.62c-.455-.798-.525-1.85-.665-3.954L6.666 8m6.667 6v6.667M18.667 14v6.667"/></symbol><symbol id="add-plus" viewBox="0 0 32 32"><path style="fill:none;stroke:var(--add-photo-btn-color,#fff);stroke-width:2px" d="M32 20.04H20V32h-8V20.04H0v-7.97h12V.11h8v11.96h12v7.97z" id="svg_1"/></symbol></defs></svg>