<svg aria-hidden="true" style="width:0;height:0;position:absolute;overflow:hidden" xmlns="http://www.w3.org/2000/svg"><defs><symbol id="x-close-icon" viewBox="0 0 32 32"><path stroke-linejoin="round" stroke-linecap="round" stroke-width="3.429" d="M24 8 8 24M8 8l16 16"/></symbol><symbol id="arrow-narrow-right-icon" viewBox="0 0 32 32"><path stroke-linejoin="round" stroke-linecap="round" stroke-width="3.2" d="M5.333 16h21.333m.001 0-8-8m8 8-8 8"/></symbol><symbol id="arrow_narrow_right_icon" viewBox="0 0 43 32"><path fill="none" style="fill:var(--color4,#eac645)" stroke-linejoin="round" stroke-linecap="round" stroke-width="5.333" d="M3.555 16h35.556m0 0L25.778 2.667M39.111 16 25.778 29.333"/></symbol><symbol id="mobile_menu_icon" viewBox="0 0 32 32"><path stroke-linejoin="round" stroke-linecap="round" stroke-width="2.286" d="M22.667 13.333H4M28 8H4M28 18.667H4M22.667 24H4"/></symbol><symbol id="close_icon" viewBox="0 0 32 32"><path fill="none" stroke="#111" style="stroke:var(--color1,#111)" stroke-linejoin="round" stroke-linecap="round" stroke-width="5.333" d="M29.333 2.667 2.666 29.334m.001-26.667 26.667 26.667"/></symbol><symbol id="trash_bucket_icon" viewBox="0 0 32 32"><path fill="none" style="stroke:var(--color1,#fff)" stroke-linejoin="round" stroke-linecap="round" stroke-width="2.667" d="M12 4h8M4 8h24m-2.667 0-.935 14.026c-.14 2.104-.21 3.156-.665 3.954a4.007 4.007 0 0 1-1.731 1.62c-.826.4-1.881.4-3.99.4h-4.025c-2.109 0-3.163 0-3.99-.4a4.001 4.001 0 0 1-1.731-1.62c-.455-.798-.525-1.85-.665-3.954L6.666 8m6.667 6v6.667M18.667 14v6.667"/></symbol><symbol id="add-plus" viewBox="0 0 32 32"><path style="fill:var(--add-photo-btn-color,#fff);stroke:none;stroke-width:2px" d="M32 20.04H20V32h-8V20.04H0v-7.97h12V.11h8v11.96h12v7.97z" id="svg_1"/></symbol><symbol id="profile-edit" viewBox="0 0 29 29"><path style="stroke:var(--profile-edit-color);fill:none" d="M8.218 19.043c.046-.414.068-.62.131-.814a2 2 0 0 1 .233-.485c.112-.17.26-.317.553-.61l8.768-8.768a1.932 1.932 0 0 1 2.731 0v0a1.932 1.932 0 0 1 0 2.732l-8.767 8.767c-.294.294-.441.441-.61.553a2 2 0 0 1-.486.233c-.193.063-.4.086-.813.131L8 21l.218-1.957Z" stroke-width="1.3" stroke-linecap="round" stroke-linejoin="round"/></symbol></defs></svg>