<svg aria-hidden="true" style="position: absolute; width: 0; height: 0; overflow: hidden;" version="1.1" xmlns="http://www.w3.org/2000/svg" xmlns:xlink="http://www.w3.org/1999/xlink">
   
  <defs>

        <!-- header icons  -->
        <symbol id="logo-icon" viewBox="0 0 32 32">
            <path fill="#f6f6f6" style="fill: var(--color2, #f6f6f6)" d="M0 0l16.343 16.172 15.657 15.828v-32h-32z"></path>
            <path fill="#f6f6f6" style="fill: var(--color2, #f6f6f6)" d="M4.457 4.228l11.943 11.829 11.257 11.485h-23.2v-23.315z"></path>
            <path fill="#4f2ee8" style="fill: var(--color3, #4f2ee8)" d="M27.733 27.619l-11.944-11.829-11.256-11.485h23.2v23.315z"></path>
            <path fill="#4f2ee8" style="fill: var(--color3, #4f2ee8)" d="M9.257 9.028l13.6 13.601h-13.6v-13.6z"></path>
            <path fill="#f6f6f6" style="fill: var(--color2, #f6f6f6)" d="M9.257 9.028l13.6 13.601v-13.6h-13.6z"></path>
        </symbol>

        <symbol id="shopping-bag-icon" viewBox="0 0 32 32">
            <path d="M25.333 9.333h-4v-1.333c0-2.945-2.388-5.333-5.333-5.333s-5.333 2.388-5.333 5.333v0 1.333h-4c-0 0-0.001 0-0.002 0-0.736 0-1.333 0.597-1.333 1.333 0 0.001 0 0.001 0 0.002v-0 14.666c0 2.209 1.791 4 4 4v0h13.334c2.209 0 4-1.791 4-4v0-14.666c0-0 0-0.001 0-0.002 0-0.736-0.597-1.333-1.333-1.333-0.001 0-0.001 0-0.002 0h0zM13.333 8c0-1.473 1.194-2.667 2.667-2.667s2.667 1.194 2.667 2.667v1.333h-5.334v-1.333zM24 25.333c0 0 0 0.001 0 0.002 0 0.736-0.597 1.333-1.333 1.333h-13.334c-0.736 0-1.333-0.597-1.333-1.333 0-0.001 0-0.001 0-0.002v0-13.333h2.667v1.333c0 0.736 0.597 1.333 1.333 1.333s1.333-0.597 1.333-1.333v0-1.333h5.334v1.333c0.036 0.708 0.619 1.269 1.333 1.269s1.297-0.561 1.333-1.266l0-0.003v-1.333h2.667v13.333z"></path>
        </symbol>

        <symbol id="burger-menu-icon" viewBox="0 0 32 32">
            <path stroke-linejoin="round" stroke-linecap="round" stroke-miterlimit="4" stroke-width="2.2857" d="M22.667 13.333h-18.667"></path>
            <path stroke-linejoin="round" stroke-linecap="round" stroke-miterlimit="4" stroke-width="2.2857" d="M28 8h-24"></path>
            <path stroke-linejoin="round" stroke-linecap="round" stroke-miterlimit="4" stroke-width="2.2857" d="M28 18.667h-24"></path>
            <path stroke-linejoin="round" stroke-linecap="round" stroke-miterlimit="4" stroke-width="2.2857" d="M22.667 24h-18.667"></path>
        </symbol>

        <symbol id="x-close-icon" viewBox="0 0 32 32">
            <path stroke-linejoin="round" stroke-linecap="round" stroke-miterlimit="4" stroke-width="3.4286" d="M24 8l-16 16M8 8l16 16"></path>
        </symbol>

        <symbol id="arrow-narrow-right-icon" viewBox="0 0 32 32">
            <path stroke-linejoin="round" stroke-linecap="round" stroke-miterlimit="4" stroke-width="3.2" d="M5.333 16h21.333M26.667 16l-8-8M26.667 16l-8 8"></path>
        </symbol>



        <!-- mobile menu icons -->
        
        <symbol id="arrow_narrow_right_icon" viewBox="0 0 43 32">
            <path fill="none" stroke="#eac645" style="stroke: var(--color4, #eac645)" stroke-linejoin="round" stroke-linecap="round" stroke-miterlimit="4" stroke-width="5.3333" d="M3.555 16h35.556M39.111 16l-13.333-13.333M39.111 16l-13.333 13.333"></path>
        </symbol>

        <symbol id="mobile_menu_icon" viewBox="0 0 32 32">
            <path stroke-linejoin="round" stroke-linecap="round" stroke-miterlimit="4" stroke-width="2.2857" d="M22.667 13.333h-18.667"></path>
            <path stroke-linejoin="round" stroke-linecap="round" stroke-miterlimit="4" stroke-width="2.2857" d="M28 8h-24"></path>
            <path stroke-linejoin="round" stroke-linecap="round" stroke-miterlimit="4" stroke-width="2.2857" d="M28 18.667h-24"></path>
            <path stroke-linejoin="round" stroke-linecap="round" stroke-miterlimit="4" stroke-width="2.2857" d="M22.667 24h-18.667"></path>
        </symbol>



         <!-- autorization window icons-->
        <symbol id="name_icon" viewBox="0 0 19 19" >
            <path fill="var(--auth-icon-color)" stroke="none" d="M3.16663 17.4166C3.16663 15.7369 3.83389 14.126 5.02162 12.9383C6.20935 11.7506 7.82025 11.0833 9.49996 11.0833C11.1797 11.0833 12.7906 11.7506 13.9783 12.9383C15.166 14.126 15.8333 15.7369 15.8333 17.4166H3.16663ZM9.49996 10.2916C6.87558 10.2916 4.74996 8.166 4.74996 5.54163C4.74996 2.91725 6.87558 0.791626 9.49996 0.791626C12.1243 0.791626 14.25 2.91725 14.25 5.54163C14.25 8.166 12.1243 10.2916 9.49996 10.2916Z" fill="#4F2EE8" />
        </symbol>

        <symbol id="mail_icon" viewBox="0 0 41 32">
            <path stroke="var(--auth-icon-color)" fill="none" stroke-linejoin="round" stroke-linecap="round" stroke-miterlimit="4" stroke-width="3.4286" d="M36.857 26.286l-11.387-10.286M15.673 16l-11.387 10.286M3.429 7.429l13.998 9.799c1.134 0.793 1.701 1.189 2.315 1.342 0.544 0.137 1.115 0.137 1.659 0 0.617-0.153 1.182-0.549 2.315-1.342l13.998-9.799M11.657 29.714h17.829c2.88 0 4.32 0 5.419-0.56 0.969-0.494 1.755-1.28 2.249-2.249 0.56-1.097 0.56-2.537 0.56-5.419v-10.971c0-2.88 0-4.32-0.56-5.419-0.502-0.973-1.275-1.746-2.218-2.236l-0.029-0.014c-1.102-0.56-2.542-0.56-5.422-0.56h-17.829c-2.88 0-4.32 0-5.419 0.56-0.973 0.503-1.746 1.276-2.236 2.22l-0.014 0.029c-0.56 1.097-0.56 2.537-0.56 5.419v10.971c0 2.88 0 4.32 0.56 5.419 0.494 0.969 1.28 1.755 2.249 2.249 1.097 0.56 2.537 0.56 5.419 0.56z"></path>
        </symbol>

        <symbol id="password_icon" viewBox="0 0 32 32">
            <path stroke="var(--auth-icon-color)" fill="none" stroke-linejoin="round" stroke-linecap="round" stroke-miterlimit="4" stroke-width="3" d="M23.5 14.5v-4.5c0-4.142-3.358-7.5-7.5-7.5s-7.5 3.358-7.5 7.5v0 4.5M9.7 29.5h12.6c2.52 0 3.78 0 4.742-0.49 0.848-0.432 1.536-1.12 1.968-1.968 0.49-0.96 0.49-2.22 0.49-4.742v-0.6c0-2.52 0-3.78-0.49-4.742-0.44-0.851-1.117-1.528-1.943-1.956l-0.025-0.012c-0.96-0.49-2.22-0.49-4.742-0.49h-12.6c-2.52 0-3.78 0-4.742 0.49-0.851 0.44-1.528 1.117-1.956 1.943l-0.012 0.025c-0.49 0.96-0.49 2.22-0.49 4.742v0.6c0 2.52 0 3.78 0.49 4.742 0.432 0.848 1.12 1.536 1.968 1.968 0.96 0.49 2.22 0.49 4.742 0.49z"></path>
        </symbol>

        <symbol id="close_icon" viewBox="0 0 32 32">
            <path fill="none" stroke="#111111" style="stroke: var(--color1, #111111)" stroke-linejoin="round" stroke-linecap="round" stroke-miterlimit="4" stroke-width="5.3333" d="M29.333 2.667l-26.667 26.667M2.667 2.667l26.667 26.667"></path>
        </symbol>

        <symbol id="auth-triangle" viewBox="0 0 15 8" >
            <path fill="var(--auth-icon-color)" stroke="var(--auth-icon-color)" d="M0.791748 0.75H14.2084L8.17762 7.56742C7.99791 7.77051 7.7542 7.8846 7.50008 7.8846C7.24597 7.8846 7.00225 7.77051 6.82254 7.56742L0.791748 0.75Z"/>
        </symbol>

         <!--  -->
        <symbol id="trash_bucket_icon" viewBox="0 0 32 32">
            <path fill="none" style="stroke: var(--color1, #fff)" stroke-linejoin="round" stroke-linecap="round" stroke-miterlimit="4" stroke-width="2.6667" d="M12 4h8M4 8h24M25.333 8l-0.935 14.026c-0.14 2.104-0.21 3.156-0.665 3.954-0.4 0.702-1.004 1.267-1.731 1.62-0.826 0.4-1.881 0.4-3.99 0.4h-4.025c-2.109 0-3.163 0-3.99-0.4-0.727-0.353-1.331-0.917-1.731-1.62-0.455-0.798-0.525-1.85-0.665-3.954l-0.935-14.026M13.333 14v6.667M18.667 14v6.667"></path>
        </symbol>

         <!--  -->
         <symbol id="add-plus" viewBox="0 0 32 32" > 
            <path style="fill: var(--add-photo-btn-color, #fff); stroke: none; stroke-width: 2px" d="m32,20.04l-12,0l0,11.96l-8,0l0,-11.96l-12,0l0,-7.97l12,0l0,-11.96l8,0l0,11.96l12,0l0,7.97z" id="svg_1"></path>
         </symbol>

         <symbol id="profile-edit" viewBox="0 0 29 29">
            <rect x="0.5" y="0.5" width="28" height="28" stroke="none" fill="none"/>
            <rect x="0.5" y="0.5" width="28" height="28"/ stroke="none" fill="none">
            <path d="M8.21756 19.0425C8.26351 18.629 8.28648 18.4222 8.34904 18.229C8.40454 18.0575 8.48296 17.8944 8.58216 17.7439C8.69398 17.5744 8.84107 17.4273 9.13525 17.1331L17.9025 8.36585C18.6568 7.61151 19.8799 7.61151 20.6342 8.36585V8.36585C21.3885 9.12019 21.3885 10.3432 20.6342 11.0976L11.867 19.8648C11.5728 20.159 11.4257 20.3061 11.2561 20.4179C11.1057 20.5171 10.9425 20.5955 10.7711 20.651C10.5778 20.7136 10.3711 20.7366 9.95759 20.7825L8.00006 21L8.21756 19.0425Z" stroke-width="1.3" stroke-linecap="round" stroke-linejoin="round"/>
        </symbol>
    
  </defs>

</svg>



